<svg id="home-scenary" class="illustrated-scenary-home" width="1440px" height="266px" viewBox="0 0 1440 266" version="1.1" xmlns="http://www.w3.org/2000/svg" xmlns:xlink="http://www.w3.org/1999/xlink">
    <defs>
        <path d="M1832.2764,174.818156 L1842.82371,218.816406 L610.061645,218.816406 L274.961605,218.816406 C166.518527,218.816406 75.1979916,218.816406 1,218.816406 C0.268037086,218.816406 0.268037086,204.150285 1,174.818043 C38.8248636,113.354008 1687.53284,0 1790.36878,0 L1832.00527,173.68715 C1832.40448,174.058455 1832.80217,174.435417 1833.19834,174.818043 L1832.2764,174.818156 Z" id="path-1"></path>
        <linearGradient x1="50%" y1="0%" x2="50%" y2="100%" id="linearGradient-3">
            <stop stop-color="#FFFFFF" offset="0%"></stop>
            <stop stop-color="#FCF5E8" offset="100%"></stop>
        </linearGradient>
        <path d="M15.0825081,0 L70.0949064,0 L97.5191382,3.06172347 C103.131924,3.68835169 107.376884,8.43360526 107.376884,14.081262 L107.376884,66.4364477 C107.376884,73.7083813 101.481817,79.6034483 94.2098838,79.6034483 L70.2350281,79.6034483 L15.0825081,79.6034483 C8.57604113,79.6034483 3.30150754,74.3289147 3.30150754,67.8224478 L3.30150754,11.7810005 C3.30150754,5.2745336 8.57604113,1.19521858e-15 15.0825081,0 Z" id="path-4"></path>
    </defs>
    <g id="pages" stroke="none" stroke-width="1" fill="none" fill-rule="evenodd">
        <g id="homepage" transform="translate(0.000000, -682.000000)">
            <g id="hero" transform="translate(-249.000000, 25.000000)">
                <g id="scene" transform="translate(0.000000, 657.000000)">
                    <g id="landscape">
                        <g id="illo" transform="translate(409.500000, 106.500000) scale(-1, 1) translate(-409.500000, -106.500000) translate(210.000000, 0.000000)">
                            <g id="city">
                                <path d="M116.115234,172.576642 L0,172.576642 L20.4890916,157.690785 C22.4879893,156.238534 24.8953225,155.456359 27.3660764,155.456359 L71.2075543,155.456359 C73.0222422,155.456359 74.812055,155.034243 76.4355059,154.223379 L95.8521802,144.525354 C97.1998878,143.852216 98.6649097,143.445681 100.166775,143.32808 L116.115234,142.079258 L116.115234,112.724234 C116.115234,111.862669 116.81367,111.164234 117.675234,111.164234 L164.431641,111.164234 L164.431641,174.830676 L116.115234,174.830676 L116.115234,172.576642 Z M335.097656,183.540156 L293.015625,183.540156 L293.015625,205.226277 L257.167969,205.226277 L257.167969,205.925566 L208.851562,205.925566 L208.851562,59.080292 L252.492188,64.7384214 L252.492188,40.5302987 L292.236328,34.3260319 L292.236328,12.3275174 L335.097656,7.69586232 L335.097656,183.540156 Z M346.007812,-2.274e-13 L399,-2.274e-13 L399,10.1058394 L346.007812,10.1058394 L346.007812,-2.274e-13 Z M346.007812,19.4343066 L399,19.4343066 L399,29.540146 L346.007812,29.540146 L346.007812,19.4343066 Z M346.007812,40.4233577 L399,40.4233577 L399,50.5291971 L346.007812,50.5291971 L346.007812,40.4233577 Z M346.007812,59.8576642 L399,59.8576642 L399,69.9635036 L346.007812,69.9635036 L346.007812,59.8576642 Z M346.007812,80.8467153 L399,80.8467153 L399,90.9525547 L346.007812,90.9525547 L346.007812,80.8467153 Z M346.007812,100.281022 L399,100.281022 L399,110.386861 L346.007812,110.386861 L346.007812,100.281022 Z M346.007812,121.270073 L399,121.270073 L399,131.375912 L346.007812,131.375912 L346.007812,121.270073 Z M346.007812,143.036496 L399,143.036496 L399,153.142336 L346.007812,153.142336 L346.007812,143.036496 Z M346.007812,164.80292 L399,164.80292 L399,174.908759 L346.007812,174.908759 L346.007812,164.80292 Z" id="Combined-Shape" fill="#FCF5E8"></path>
                                <g id="building" transform="translate(147.287109, 55.193431)">
                                    <polyline id="Rectangle-Copy" stroke="#FFFFFF" stroke-width="6.23999997" fill="#FCF5E8" stroke-linejoin="round" transform="translate(28.833984, 73.072993) scale(-1, 1) translate(-28.833984, -73.072993) " points="0 140.70438 0 5.44160584 57.6679688 5.44160584 57.6679688 140.70438"></polyline>
                                    <g id="Group" transform="translate(15.585938, 0.090456)" fill="#FFFFFF">
                                        <rect id="Combined-Shape" x="0.666664124" y="0.100200631" width="6.234375" height="156.70667"></rect>
                                        <rect id="Combined-Shape" x="17.8111954" y="0.100200631" width="6.234375" height="156.70667"></rect>
                                    </g>
                                </g>
                            </g>
                        </g>
                        <g id="bg" transform="translate(0.000000, 47.000000)">
                            <mask id="mask-2" fill="white">
                                <use xlink:href="#path-1"></use>
                            </mask>
                            <use fill="#FFFFFF" xlink:href="#path-1"></use>
                            <rect fill="url(#linearGradient-3)" mask="url(#mask-2)" x="484" y="129" width="1231" height="90"></rect>
                            <path d="M688.208405,247.316511 C1169.71117,247.316511 1429.52822,197.212008 1429.52822,159.213737 C1429.52822,121.215465 1039.19311,90.4117801 557.690342,90.4117801 C76.1875767,90.4117801 93.4459816,149.450067 93.4459816,187.448339 C93.4459816,225.44661 206.705641,247.316511 688.208405,247.316511 Z" fill="#FCF5E8" mask="url(#mask-2)" transform="translate(761.448491, 168.864145) rotate(-4.000000) translate(-761.448491, -168.864145) "></path>
                            <path d="M1356.97225,32.9192724 C1422.35787,34.7634951 1491.74936,38.1467427 1563.57717,43.1694323 C1948.38335,70.0777017 2257.39633,133.850179 2253.77698,185.609247 C2250.42773,233.505868 1982.14346,231.376953 1637.19344,209.469855 C1701.75752,187.383544 1704.32395,156.966315 1695.14028,122.98246 C1684.57364,83.8809262 1556.45602,52.623555 1356.97225,32.9192724 Z" fill="#FCF5E8" mask="url(#mask-2)" transform="translate(1805.390354, 138.642266) rotate(-4.000000) translate(-1805.390354, -128.642266) "></path>
                            <g id="app" mask="url(#mask-2)">
                                <g transform="translate(1284, 45)">
                                    <path d="M85.7979326,74.4592716 L38.0515689,75.5595986 L1.41447165,75.2512594 C0.661297919,75.2449207 0.0455914072,75.8503501 0.0392526679,76.6035238 C0.0334304767,77.2953209 0.546515125,77.8818806 1.23293718,77.9681469 L23.5464189,80.7724031 C24.1254804,80.8451769 24.7085259,80.8816706 25.2921425,80.8816706 L94.1866633,80.8816706 C109.353243,80.9082675 117.575309,80.5439003 118.852861,79.7885689 C120.287362,78.9404433 127.670022,76.3421243 118.852861,74.4592716 C112.847122,73.1767815 101.828812,73.1767815 85.7979326,74.4592716 Z" id="bg" stroke="none" fill="#F2E6CE" fill-rule="evenodd" transform="translate(61.574748, 77.190216) scale(-1, 1) translate(-61.574748, -77.190216) "></path>
                                    <mask id="mask-5" fill="white">
                                        <use xlink:href="#path-4"></use>
                                    </mask>
                                    <use id="bg" stroke="none" fill="#FCF5E8" fill-rule="evenodd" xlink:href="#path-4"></use>
                                    <g id="icon" stroke="none" stroke-width="1" fill="none" fill-rule="evenodd" mask="url(#mask-5)">
                                        <g transform="translate(4.000000, 0.000000)">
                                            <rect id="Rectangle-12" fill="#FFFFFF" x="2.048e-13" y="0" width="75.4371859" height="79.6034483" rx="11.7810005"></rect>
                                            <g id="git_branch" stroke-width="1" fill="none" transform="translate(25.000000, 19.000000)">
                                                <path d="M18.0026181,11.9992987 C18.0026181,14.21327 19.2151194,16.1277905 21.0019635,17.1685043 L21.0019635,17.9997663 C21.0019635,17.9997663 21.0019635,24.0002337 15.0016364,24.0002337 C12.514454,24.0002337 10.5656158,24.5336814 9.00130905,25.3502162 L9.00130905,11.1696731 C10.7897895,10.1289594 12.0006545,8.21443876 12.0006545,6.00046752 C12.0006545,2.68851053 9.31220683,0 6.00032726,0 C2.68844769,0 0,2.68851053 0,6.00046752 C0,8.21443876 1.21086506,10.1289594 2.99934548,11.1696731 L2.99934548,30.8319632 C1.21086506,31.8726769 0,33.7855612 0,35.9995324 C0,39.309853 2.68844769,42 6.00032726,42 C9.31220683,42 12.0006545,39.309853 12.0006545,35.9995324 C12.0006545,34.4286438 11.3821316,33.0115712 10.3954402,31.9381307 C11.2692266,30.8663264 12.6879023,29.9990649 15.0016364,29.9990649 C26.9073852,29.9990649 27.0006545,17.9997663 27.0006545,17.9997663 L27.0006545,17.1685043 C28.7874987,16.1277905 30,14.21327 30,11.9992987 C30,8.68734172 27.3099161,5.99883117 23.9996727,5.99883117 C20.6927021,5.99883117 18.0026181,8.68734172 18.0026181,11.9992987 Z M6.00359986,2.99941559 C7.66281227,2.99941559 9.00294534,4.33958 9.00294534,5.99883117 C9.00294534,7.65808236 7.66281227,8.99824677 6.00359986,8.99824677 C4.34438748,8.99824677 3.00425439,7.65808236 3.00425439,5.99883117 C3.00425439,4.33958 4.34438748,2.99941559 6.00359986,2.99941559 Z M6.00359986,38.9989481 C4.34438748,38.9989481 3.00425439,37.6571472 3.00425439,35.9995324 C3.00425439,34.3435539 4.34438748,33.0001169 6.00359986,33.0001169 C7.66281227,33.0001169 9.00294534,34.3451903 9.00294534,35.9995324 C9.00294534,37.6571472 7.66281227,38.9989481 6.00359986,38.9989481 Z M24.0029454,14.9987142 C22.3453692,14.9987142 21.0035998,13.6585499 21.0035998,11.9992987 C21.0035998,10.3400475 22.3453692,8.99988312 24.0029454,8.99988312 C25.6605215,8.99988312 27.0022908,10.3400475 27.0022908,11.9992987 C27.0022908,13.6585499 25.6605215,14.9987142 24.0029454,14.9987142 Z" id="Shape" fill="#F2E6CE" fill-rule="nonzero"></path>
                                            </g>
                                        </g>
                                    </g>
                                </g>
                            </g>
                        </g>
                    </g>
                </g>
            </g>
        </g>
    </g>
</svg>
