<?xml version="1.0" encoding="UTF-8"?>
<svg width="49px" height="49px" viewBox="0 0 49 49" version="1.1" xmlns="http://www.w3.org/2000/svg" xmlns:xlink="http://www.w3.org/1999/xlink">
    <!-- Generator: Sketch 55.2 (78181) - https://sketchapp.com -->
    <title>Group</title>
    <desc>Created with Sketch.</desc>
    <g id="Page-1" stroke="none" stroke-width="1" fill="none" fill-rule="evenodd">
        <g id="logo-lewagon-alumni" fill-rule="nonzero">
            <g id="Group">
                <path d="M48.4166667,24.2083333 C48.4166667,37.5782254 37.5782167,48.4166667 24.2083333,48.4166667 C10.8384413,48.4166667 0,37.5782254 0,24.2083333 C0,10.83845 10.8384413,0 24.2083333,0 C37.5782167,0 48.4166667,10.83845 48.4166667,24.2083333 Z" id="Path" fill="#FD1015"></path>
                <path d="M29.4669667,31.2520979 C29.44585,31.3924187 29.3247792,31.5 29.1785667,31.5 C29.1745708,31.5 29.1706042,31.4999212 29.1666667,31.4997608 L29.1666667,31.5 L18.6666667,31.5 C18.505585,31.5 18.375,31.369415 18.375,31.2083333 L18.3630213,31.2083333 C18.2148108,29.4118038 16.7097758,28 14.875,28 C13.0402242,28 11.5351892,29.4118038 11.3869788,31.2083333 L11.3868387,31.2083333 C11.3868387,31.2089283 11.3868358,31.2095233 11.3868329,31.2101213 C11.38571,31.2238063 11.3846687,31.2375175 11.3837033,31.2512492 C11.3629483,31.3919842 11.2416733,31.5 11.0951721,31.5 C11.0912054,31.5 11.0872592,31.4999212 11.0833333,31.4997637 L11.0833333,31.5 L10.2083333,31.5 C10.0472517,31.5 9.91666667,31.369415 9.91666667,31.2083333 L9.91666667,30.625 C9.91666667,30.4639183 10.0472517,30.3333333 10.2083333,30.3333333 L10.2083333,26.5416667 C10.2083333,26.380585 10.3389183,26.25 10.5,26.25 L32.9614542,26.25 C34.5203542,26.25 35.9205,26.9298575 36.8815125,28.0092517 C36.9539042,28.0905742 37.0449625,28.20426 37.1546292,28.3503092 C37.2648208,28.4970175 37.4376042,28.5833392 37.6210917,28.5833392 L37.6210917,28.5833333 L37.9278958,28.5833333 C38.1439042,28.5833333 38.43245,28.5833333 38.7935625,28.5833363 C39.1148625,28.5843658 39.375,28.8451363 39.375,29.1666667 L39.375,30.9166667 C39.375,31.2388329 39.1138417,31.5 38.7916667,31.5 L36.75,31.5 L36.75,31.4997696 C36.7461208,31.4999212 36.7422125,31.5 36.7383042,31.5 C36.5911583,31.5 36.469475,31.3910596 36.4494958,31.2494408 C36.4486208,31.2369283 36.4476583,31.2244333 36.4466375,31.2119588 C36.4466375,31.2107513 36.4466375,31.2095438 36.4466375,31.2083333 L36.4463458,31.2083333 C36.29815,29.4118038 34.7931208,28 32.9583333,28 C31.1235458,28 29.6185167,29.4118038 29.4703208,31.2083333 L29.4702333,31.2083333 L29.4702333,31.2092579 C29.4690667,31.2235146 29.4679875,31.2377946 29.4669667,31.2520979 Z M38.7916667,27.125 C38.7916667,27.2860817 38.6610875,27.4166667 38.5,27.4166667 L38.0414125,27.4166667 C37.9581417,27.4166667 37.8788375,27.3810804 37.8235083,27.3188708 L37.8235083,27.318865 C37.632175,27.1038046 37.4806833,26.9434608 37.3690625,26.8378308 C36.2198667,25.7502875 34.66855,25.0833333 32.9614542,25.0833333 L10.5,25.0833333 C10.3389183,25.0833333 10.2083304,24.9527483 10.2083304,24.7916667 L10.2083304,18.0063625 C10.2083304,16.6974208 11.1726417,15.5885042 12.4689133,15.4067667 C16.3849262,14.8578208 20.0716279,14.5833333 23.5290125,14.5833333 C29.7019917,14.5833333 32.1020875,15.074675 34.4166667,16.3333333 C35.8261167,17.099775 37.1648375,18.9506333 38.4329167,21.8859112 C38.669575,22.43374 38.7916667,23.0241929 38.7916667,23.6209604 L38.7916667,27.125 Z M10.2083333,25.375 L10.2083333,25.9583333 L10.2083333,25.375 Z M11.9583333,17.7916667 C11.7972517,17.7916667 11.6666667,17.9222458 11.6666667,18.0833333 L11.6666667,22.4583333 C11.6666667,22.619415 11.7972517,22.75 11.9583333,22.75 L16.3333333,22.75 C16.494415,22.75 16.625,22.619415 16.625,22.4583333 L16.625,18.0833333 C16.625,17.9222458 16.494415,17.7916667 16.3333333,17.7916667 L11.9583333,17.7916667 Z M24.2083333,17.7916667 C24.0472517,17.7916667 23.9166667,17.9222458 23.9166667,18.0833333 L23.9166667,22.4583333 C23.9166667,22.619415 24.0472517,22.75 24.2083333,22.75 L28.5833333,22.75 C28.744415,22.75 28.875,22.619415 28.875,22.4583333 L28.875,18.0833333 C28.875,17.9222458 28.744415,17.7916667 28.5833333,17.7916667 L24.2083333,17.7916667 Z M18.0833333,17.7916667 C17.9222517,17.7916667 17.7916667,17.9222458 17.7916667,18.0833333 L17.7916667,22.4583333 C17.7916667,22.619415 17.9222517,22.75 18.0833333,22.75 L22.4583333,22.75 C22.619415,22.75 22.75,22.619415 22.75,22.4583333 L22.75,18.0833333 C22.75,17.9222458 22.619415,17.7916667 22.4583333,17.7916667 L18.0833333,17.7916667 Z M30.3333333,17.7916667 C30.1722458,17.7916667 30.0416667,17.9222458 30.0416667,18.0833333 L30.0416667,22.4583333 C30.0416667,22.619415 30.1722458,22.75 30.3333333,22.75 L37.0591667,22.75 C37.094925,22.75 37.1303625,22.7434317 37.1637292,22.7306217 C37.3140833,22.6728833 37.3891875,22.5041746 37.3314667,22.3538 L37.3314667,22.3537971 C37.0118,21.5212346 36.6423458,20.7555017 36.223075,20.0566042 C36.1600458,19.9515458 36.1020917,19.8474208 36.0492417,19.7441708 C35.4355458,18.5456542 34.2024083,17.7916667 32.8559,17.7916667 L30.3333333,17.7916667 Z M14.875,33.8333333 C13.586335,33.8333333 12.5416667,32.788665 12.5416667,31.5 C12.5416667,30.211335 13.586335,29.1666667 14.875,29.1666667 C16.163665,29.1666667 17.2083333,30.211335 17.2083333,31.5 C17.2083333,32.788665 16.163665,33.8333333 14.875,33.8333333 Z M14.875,32.6666667 C15.5193325,32.6666667 16.0416667,32.1443325 16.0416667,31.5 C16.0416667,30.8556675 15.5193325,30.3333333 14.875,30.3333333 C14.2306675,30.3333333 13.7083333,30.8556675 13.7083333,31.5 C13.7083333,32.1443325 14.2306675,32.6666667 14.875,32.6666667 Z M32.9583333,33.8333333 C31.6696625,33.8333333 30.625,32.788665 30.625,31.5 C30.625,30.211335 31.6696625,29.1666667 32.9583333,29.1666667 C34.2470042,29.1666667 35.2916667,30.211335 35.2916667,31.5 C35.2916667,32.788665 34.2470042,33.8333333 32.9583333,33.8333333 Z M32.9583333,32.6666667 C33.6026542,32.6666667 34.125,32.1443325 34.125,31.5 C34.125,30.8556675 33.6026542,30.3333333 32.9583333,30.3333333 C32.3140125,30.3333333 31.7916667,30.8556675 31.7916667,31.5 C31.7916667,32.1443325 32.3140125,32.6666667 32.9583333,32.6666667 Z" id="Shape" fill="#FFFFFF"></path>
            </g>
        </g>
    </g>
</svg>